<svg width="26" height="16" viewBox="0 0 26 16" fill="none" xmlns="http://www.w3.org/2000/svg">
<path d="M25.3146 1.14934L10.247 15.4651C9.91147 15.7837 9.4416 15.9753 8.94076 15.9978C8.43993 16.0203 7.94915 15.8718 7.57636 15.585C7.55346 15.5672 7.53057 15.5493 7.50867 15.5306L1.06238 10.0204C0.689155 9.70129 0.479492 9.26854 0.479492 8.81731C0.479492 8.36607 0.689155 7.9333 1.06238 7.61418C1.24725 7.45608 1.46676 7.33069 1.70835 7.24512C1.94994 7.15956 2.20888 7.11552 2.47039 7.11552C2.7319 7.11552 2.99084 7.15956 3.23243 7.24512C3.47402 7.33069 3.69352 7.45608 3.8784 7.61418L8.91419 11.9187L24.1788 0.176812C24.2573 0.116322 24.3489 0.0696389 24.4485 0.0394612C24.548 0.00928358 24.6536 -0.00379394 24.7591 0.00094817C24.8646 0.00569028 24.968 0.0281722 25.0633 0.0671101C25.1586 0.106048 25.244 0.160663 25.3146 0.227851C25.4472 0.354539 25.5206 0.518584 25.5206 0.688596C25.5206 0.858607 25.4472 1.02265 25.3146 1.14934Z" fill="#4FC7E4"/>
</svg>
