<svg width="27" height="16" viewBox="0 0 27 16" fill="none" xmlns="http://www.w3.org/2000/svg">
<path d="M25.8146 1.14934L10.747 15.4651C10.4115 15.7837 9.9416 15.9753 9.44076 15.9978C8.93993 16.0203 8.44915 15.8718 8.07636 15.585C8.05346 15.5672 8.03057 15.5493 8.00867 15.5306L1.56238 10.0204C1.18915 9.70129 0.979492 9.26854 0.979492 8.81731C0.979492 8.36607 1.18915 7.9333 1.56238 7.61418C1.74725 7.45608 1.96676 7.33069 2.20835 7.24512C2.44994 7.15956 2.70888 7.11552 2.97039 7.11552C3.2319 7.11552 3.49084 7.15956 3.73243 7.24512C3.97402 7.33069 4.19352 7.45608 4.3784 7.61418L9.41419 11.9187L24.6788 0.176812C24.7573 0.116322 24.8489 0.0696389 24.9485 0.0394612C25.048 0.00928358 25.1536 -0.00379394 25.2591 0.00094817C25.3646 0.00569028 25.468 0.0281722 25.5633 0.0671101C25.6586 0.106048 25.744 0.160663 25.8146 0.227851C25.9472 0.354539 26.0206 0.518584 26.0206 0.688596C26.0206 0.858607 25.9472 1.02265 25.8146 1.14934Z" fill="#FAA83A"/>
</svg>
