<svg width="18" height="19" viewBox="0 0 18 19" fill="none" xmlns="http://www.w3.org/2000/svg">
<path d="M0.635977 14.8518L15.145 0.833419C15.2502 0.722999 15.375 0.635431 15.5123 0.575709C15.6496 0.515988 15.7968 0.485283 15.9454 0.485352C16.0941 0.485421 16.2412 0.51626 16.3785 0.576109C16.5158 0.635958 16.6405 0.723646 16.7456 0.834164C16.8506 0.944681 16.9339 1.07587 16.9907 1.22023C17.0476 1.36459 17.0768 1.5193 17.0767 1.67553C17.0766 1.83175 17.0473 1.98644 16.9904 2.13074C16.9334 2.27505 16.85 2.40616 16.7449 2.51658L3.40425 17.7646C3.05235 18.1671 2.56277 18.4061 2.04322 18.4291C1.52367 18.4521 1.01671 18.2572 0.633857 17.8873C0.251005 17.5174 0.0236247 17.0028 0.00173909 16.4567C-0.0201465 15.9105 0.165253 15.3777 0.517155 14.9752C0.556763 14.9336 0.597784 14.8905 0.635977 14.8518Z" fill="#FF0000"/>
<path d="M2.83842 0.903586L17.3206 14.9473C17.5184 15.124 17.6803 15.341 17.7963 15.5851C17.9124 15.8292 17.9804 16.0955 17.9961 16.368C18.0118 16.6404 17.9749 16.9133 17.8877 17.1704C17.8005 17.4275 17.6648 17.6634 17.4887 17.864C17.3126 18.0645 17.0997 18.2256 16.8629 18.3375C16.6261 18.4494 16.3702 18.5099 16.1106 18.5152C15.851 18.5205 15.593 18.4706 15.3522 18.3685C15.1114 18.2664 14.8927 18.1142 14.7093 17.921C14.6711 17.8839 14.6329 17.8437 14.599 17.8051L1.23999 2.58526C1.04137 2.35963 0.933566 2.06194 0.939173 1.7546C0.944781 1.44725 1.06336 1.15412 1.27006 0.936661C1.47676 0.7192 1.75552 0.594296 2.0479 0.58813C2.34029 0.581964 2.6236 0.695015 2.83842 0.903586Z" fill="#FF0000"/>
</svg>
